<svg width="31" height="30" viewBox="0 0 31 30" fill="none" xmlns="http://www.w3.org/2000/svg">
<path d="M25.7941 10C24.5441 10 23.4816 9.51389 22.6066 8.54167C21.7316 7.56944 21.2941 6.38889 21.2941 5C21.2941 3.61111 21.7316 2.43056 22.6066 1.45833C23.4816 0.486111 24.5441 0 25.7941 0C27.0441 0 28.1066 0.486111 28.9816 1.45833C29.8566 2.43056 30.2941 3.61111 30.2941 5C30.2941 6.38889 29.8566 7.56944 28.9816 8.54167C28.1066 9.51389 27.0441 10 25.7941 10ZM3.29413 30C2.46913 30 1.76313 29.6739 1.17613 29.0217C0.588129 28.3683 0.294128 27.5833 0.294128 26.6667V6.66667C0.294128 5.75 0.588129 4.96556 1.17613 4.31333C1.76313 3.66 2.46913 3.33333 3.29413 3.33333H18.4441C18.3441 3.88889 18.2941 4.44444 18.2941 5C18.2941 5.55556 18.3441 6.11111 18.4441 6.66667C18.6191 7.55556 18.9066 8.38167 19.3066 9.145C19.7066 9.90944 20.1941 10.5833 20.7691 11.1667L15.2941 15L5.24413 8C4.81913 7.69444 4.38813 7.68056 3.95113 7.95833C3.51313 8.23611 3.29413 8.65278 3.29413 9.20833C3.29413 9.45833 3.34413 9.68778 3.44413 9.89667C3.54413 10.1044 3.69413 10.2778 3.89413 10.4167L14.5066 17.7917C14.7566 17.9583 15.0191 18.0417 15.2941 18.0417C15.5691 18.0417 15.8316 17.9583 16.0816 17.7917L23.2066 12.8333C23.6316 13 24.0566 13.125 24.4816 13.2083C24.9066 13.2917 25.3441 13.3333 25.7941 13.3333C26.5941 13.3333 27.3816 13.1944 28.1566 12.9167C28.9316 12.6389 29.6441 12.2222 30.2941 11.6667V26.6667C30.2941 27.5833 30.0006 28.3683 29.4136 29.0217C28.8256 29.6739 28.1191 30 27.2941 30H3.29413Z" fill="white"/>
</svg>
