<svg width="31" height="31" viewBox="0 0 31 31" fill="none" xmlns="http://www.w3.org/2000/svg">
<path d="M9.11177 0.90625H21.7118C26.5118 0.90625 30.4118 4.80625 30.4118 9.60625V22.2063C30.4118 24.5136 29.4952 26.7265 27.8636 28.3581C26.232 29.9896 24.0192 30.9062 21.7118 30.9062H9.11177C4.31177 30.9062 0.411774 27.0063 0.411774 22.2063V9.60625C0.411774 7.29887 1.32838 5.08599 2.95994 3.45442C4.59151 1.82285 6.80439 0.90625 9.11177 0.90625ZM8.81177 3.90625C7.3796 3.90625 6.00609 4.47518 4.9934 5.48787C3.9807 6.50057 3.41177 7.87408 3.41177 9.30625V22.5062C3.41177 25.4912 5.82677 27.9062 8.81177 27.9062H22.0118C23.4439 27.9062 24.8175 27.3373 25.8302 26.3246C26.8428 25.3119 27.4118 23.9384 27.4118 22.5062V9.30625C27.4118 6.32125 24.9968 3.90625 22.0118 3.90625H8.81177ZM23.2868 6.15625C23.7841 6.15625 24.261 6.35379 24.6126 6.70542C24.9642 7.05706 25.1618 7.53397 25.1618 8.03125C25.1618 8.52853 24.9642 9.00544 24.6126 9.35707C24.261 9.70871 23.7841 9.90625 23.2868 9.90625C22.7895 9.90625 22.3126 9.70871 21.9609 9.35707C21.6093 9.00544 21.4118 8.52853 21.4118 8.03125C21.4118 7.53397 21.6093 7.05706 21.9609 6.70542C22.3126 6.35379 22.7895 6.15625 23.2868 6.15625ZM15.4118 8.40625C17.4009 8.40625 19.3086 9.19643 20.7151 10.6029C22.1216 12.0095 22.9118 13.9171 22.9118 15.9062C22.9118 17.8954 22.1216 19.803 20.7151 21.2096C19.3086 22.6161 17.4009 23.4062 15.4118 23.4062C13.4227 23.4062 11.515 22.6161 10.1085 21.2096C8.70195 19.803 7.91177 17.8954 7.91177 15.9062C7.91177 13.9171 8.70195 12.0095 10.1085 10.6029C11.515 9.19643 13.4227 8.40625 15.4118 8.40625ZM15.4118 11.4062C14.2183 11.4062 13.0737 11.8804 12.2298 12.7243C11.3859 13.5682 10.9118 14.7128 10.9118 15.9062C10.9118 17.0997 11.3859 18.2443 12.2298 19.0882C13.0737 19.9321 14.2183 20.4062 15.4118 20.4062C16.6052 20.4062 17.7498 19.9321 18.5938 19.0882C19.4377 18.2443 19.9118 17.0997 19.9118 15.9062C19.9118 14.7128 19.4377 13.5682 18.5938 12.7243C17.7498 11.8804 16.6052 11.4062 15.4118 11.4062Z" fill="white"/>
</svg>
